<mxfile host="app.diagrams.net" modified="2023-11-03T14:05:51.476Z" agent="Mozilla/5.0 (Windows NT 10.0; Win64; x64) AppleWebKit/537.36 (KHTML, like Gecko) Chrome/119.0.0.0 Safari/537.36" etag="NE1xL8BuINu193Rtsx0w" version="22.0.8" type="device">
  <diagram name="Page-1" id="_6lha4rd5pdjAyQdy6N9">
    <mxGraphModel dx="722" dy="415" grid="1" gridSize="10" guides="1" tooltips="1" connect="1" arrows="1" fold="1" page="1" pageScale="1" pageWidth="850" pageHeight="1100" math="0" shadow="0">
      <root>
        <mxCell id="0" />
        <mxCell id="1" parent="0" />
        <mxCell id="3WDfcnALqWgkgmz_dM7G-8" value="" style="endArrow=none;html=1;rounded=0;strokeWidth=1;endSize=6;jumpSize=6;exitX=0;exitY=1;exitDx=0;exitDy=0;" edge="1" parent="1" source="3WDfcnALqWgkgmz_dM7G-25">
          <mxGeometry width="50" height="50" relative="1" as="geometry">
            <mxPoint x="110" y="420" as="sourcePoint" />
            <mxPoint x="110" y="240" as="targetPoint" />
          </mxGeometry>
        </mxCell>
        <mxCell id="3WDfcnALqWgkgmz_dM7G-9" value="&lt;b&gt;&lt;font style=&quot;font-size: 16px;&quot;&gt;Donors&lt;/font&gt;&lt;/b&gt;" style="swimlane;fontStyle=0;childLayout=stackLayout;horizontal=1;startSize=30;horizontalStack=0;resizeParent=1;resizeParentMax=0;resizeLast=0;collapsible=1;marginBottom=0;whiteSpace=wrap;html=1;" vertex="1" parent="1">
          <mxGeometry x="80" y="210" width="140" height="240" as="geometry" />
        </mxCell>
        <mxCell id="3WDfcnALqWgkgmz_dM7G-13" value="" style="endArrow=none;html=1;rounded=0;" edge="1" parent="1">
          <mxGeometry width="50" height="50" relative="1" as="geometry">
            <mxPoint x="80" y="270" as="sourcePoint" />
            <mxPoint x="220" y="270" as="targetPoint" />
          </mxGeometry>
        </mxCell>
        <mxCell id="3WDfcnALqWgkgmz_dM7G-14" value="&lt;b&gt;PK&lt;/b&gt;" style="text;html=1;strokeColor=none;fillColor=none;align=center;verticalAlign=middle;whiteSpace=wrap;rounded=0;" vertex="1" parent="1">
          <mxGeometry x="80" y="240" width="30" height="30" as="geometry" />
        </mxCell>
        <mxCell id="3WDfcnALqWgkgmz_dM7G-16" value="donor_name" style="text;html=1;strokeColor=none;fillColor=none;align=center;verticalAlign=middle;whiteSpace=wrap;rounded=0;" vertex="1" parent="1">
          <mxGeometry x="110" y="270" width="110" height="30" as="geometry" />
        </mxCell>
        <mxCell id="3WDfcnALqWgkgmz_dM7G-20" value="donor_profile_img" style="text;html=1;strokeColor=none;fillColor=none;align=center;verticalAlign=middle;whiteSpace=wrap;rounded=0;" vertex="1" parent="1">
          <mxGeometry x="110" y="390" width="110" height="30" as="geometry" />
        </mxCell>
        <mxCell id="3WDfcnALqWgkgmz_dM7G-21" value="donor_address" style="text;html=1;strokeColor=none;fillColor=none;align=center;verticalAlign=middle;whiteSpace=wrap;rounded=0;" vertex="1" parent="1">
          <mxGeometry x="110" y="360" width="110" height="30" as="geometry" />
        </mxCell>
        <mxCell id="3WDfcnALqWgkgmz_dM7G-56" style="edgeStyle=orthogonalEdgeStyle;rounded=0;orthogonalLoop=1;jettySize=auto;html=1;exitX=1;exitY=0.5;exitDx=0;exitDy=0;entryX=0;entryY=0.5;entryDx=0;entryDy=0;endArrow=ERzeroToMany;endFill=0;startArrow=ERoneToMany;startFill=0;" edge="1" parent="1" source="3WDfcnALqWgkgmz_dM7G-22" target="3WDfcnALqWgkgmz_dM7G-41">
          <mxGeometry relative="1" as="geometry" />
        </mxCell>
        <mxCell id="3WDfcnALqWgkgmz_dM7G-22" value="donor_id" style="text;html=1;strokeColor=none;fillColor=none;align=center;verticalAlign=middle;whiteSpace=wrap;rounded=0;" vertex="1" parent="1">
          <mxGeometry x="110" y="240" width="110" height="30" as="geometry" />
        </mxCell>
        <mxCell id="3WDfcnALqWgkgmz_dM7G-23" value="donor_contact_no" style="text;html=1;strokeColor=none;fillColor=none;align=center;verticalAlign=middle;whiteSpace=wrap;rounded=0;" vertex="1" parent="1">
          <mxGeometry x="110" y="300" width="110" height="30" as="geometry" />
        </mxCell>
        <mxCell id="3WDfcnALqWgkgmz_dM7G-24" value="donor_email" style="text;html=1;strokeColor=none;fillColor=none;align=center;verticalAlign=middle;whiteSpace=wrap;rounded=0;" vertex="1" parent="1">
          <mxGeometry x="110" y="330" width="110" height="30" as="geometry" />
        </mxCell>
        <mxCell id="3WDfcnALqWgkgmz_dM7G-25" value="food_id" style="text;html=1;strokeColor=none;fillColor=none;align=center;verticalAlign=middle;whiteSpace=wrap;rounded=0;" vertex="1" parent="1">
          <mxGeometry x="110" y="420" width="110" height="30" as="geometry" />
        </mxCell>
        <mxCell id="3WDfcnALqWgkgmz_dM7G-26" value="" style="endArrow=none;html=1;rounded=0;entryX=1;entryY=0;entryDx=0;entryDy=0;" edge="1" parent="1" target="3WDfcnALqWgkgmz_dM7G-25">
          <mxGeometry width="50" height="50" relative="1" as="geometry">
            <mxPoint x="80" y="420" as="sourcePoint" />
            <mxPoint x="160" y="390" as="targetPoint" />
          </mxGeometry>
        </mxCell>
        <mxCell id="3WDfcnALqWgkgmz_dM7G-27" value="FK" style="text;html=1;strokeColor=none;fillColor=none;align=center;verticalAlign=middle;whiteSpace=wrap;rounded=0;" vertex="1" parent="1">
          <mxGeometry x="80" y="420" width="30" height="30" as="geometry" />
        </mxCell>
        <mxCell id="3WDfcnALqWgkgmz_dM7G-29" value="" style="endArrow=none;html=1;rounded=0;strokeWidth=1;endSize=6;jumpSize=6;exitX=1;exitY=1;exitDx=0;exitDy=0;" edge="1" parent="1" source="3WDfcnALqWgkgmz_dM7G-51">
          <mxGeometry width="50" height="50" relative="1" as="geometry">
            <mxPoint x="380" y="580.5228917738971" as="sourcePoint" />
            <mxPoint x="380" y="190" as="targetPoint" />
          </mxGeometry>
        </mxCell>
        <mxCell id="3WDfcnALqWgkgmz_dM7G-30" value="&lt;b&gt;&lt;font style=&quot;font-size: 16px;&quot;&gt;Food_Items&lt;/font&gt;&lt;/b&gt;" style="swimlane;fontStyle=0;childLayout=stackLayout;horizontal=1;startSize=30;horizontalStack=0;resizeParent=1;resizeParentMax=0;resizeLast=0;collapsible=1;marginBottom=0;whiteSpace=wrap;html=1;" vertex="1" parent="1">
          <mxGeometry x="350" y="160" width="140" height="360" as="geometry" />
        </mxCell>
        <mxCell id="3WDfcnALqWgkgmz_dM7G-31" value="" style="endArrow=none;html=1;rounded=0;" edge="1" parent="1">
          <mxGeometry width="50" height="50" relative="1" as="geometry">
            <mxPoint x="350" y="220" as="sourcePoint" />
            <mxPoint x="490" y="220" as="targetPoint" />
          </mxGeometry>
        </mxCell>
        <mxCell id="3WDfcnALqWgkgmz_dM7G-32" value="&lt;b&gt;PK&lt;/b&gt;" style="text;html=1;strokeColor=none;fillColor=none;align=center;verticalAlign=middle;whiteSpace=wrap;rounded=0;" vertex="1" parent="1">
          <mxGeometry x="350" y="190" width="30" height="30" as="geometry" />
        </mxCell>
        <mxCell id="3WDfcnALqWgkgmz_dM7G-33" value="food_name" style="text;html=1;strokeColor=none;fillColor=none;align=center;verticalAlign=middle;whiteSpace=wrap;rounded=0;" vertex="1" parent="1">
          <mxGeometry x="380" y="220" width="110" height="30" as="geometry" />
        </mxCell>
        <mxCell id="3WDfcnALqWgkgmz_dM7G-35" value="food_descriptions" style="text;html=1;strokeColor=none;fillColor=none;align=center;verticalAlign=middle;whiteSpace=wrap;rounded=0;" vertex="1" parent="1">
          <mxGeometry x="380" y="310" width="110" height="30" as="geometry" />
        </mxCell>
        <mxCell id="3WDfcnALqWgkgmz_dM7G-100" style="edgeStyle=orthogonalEdgeStyle;rounded=0;orthogonalLoop=1;jettySize=auto;html=1;exitX=1;exitY=0.5;exitDx=0;exitDy=0;entryX=0;entryY=0.5;entryDx=0;entryDy=0;endArrow=ERmandOne;endFill=0;startArrow=ERmandOne;startFill=0;" edge="1" parent="1" source="3WDfcnALqWgkgmz_dM7G-36" target="3WDfcnALqWgkgmz_dM7G-99">
          <mxGeometry relative="1" as="geometry" />
        </mxCell>
        <mxCell id="3WDfcnALqWgkgmz_dM7G-36" value="food_id" style="text;html=1;strokeColor=none;fillColor=none;align=center;verticalAlign=middle;whiteSpace=wrap;rounded=0;" vertex="1" parent="1">
          <mxGeometry x="380" y="190" width="110" height="30" as="geometry" />
        </mxCell>
        <mxCell id="3WDfcnALqWgkgmz_dM7G-37" value="food types" style="text;html=1;strokeColor=none;fillColor=none;align=center;verticalAlign=middle;whiteSpace=wrap;rounded=0;" vertex="1" parent="1">
          <mxGeometry x="380" y="250" width="110" height="30" as="geometry" />
        </mxCell>
        <mxCell id="3WDfcnALqWgkgmz_dM7G-38" value="food_quantity" style="text;html=1;strokeColor=none;fillColor=none;align=center;verticalAlign=middle;whiteSpace=wrap;rounded=0;" vertex="1" parent="1">
          <mxGeometry x="380" y="280" width="110" height="30" as="geometry" />
        </mxCell>
        <mxCell id="3WDfcnALqWgkgmz_dM7G-39" value="food_image" style="text;html=1;strokeColor=none;fillColor=none;align=center;verticalAlign=middle;whiteSpace=wrap;rounded=0;" vertex="1" parent="1">
          <mxGeometry x="380" y="400" width="110" height="30" as="geometry" />
        </mxCell>
        <mxCell id="3WDfcnALqWgkgmz_dM7G-40" value="" style="endArrow=none;html=1;rounded=0;" edge="1" parent="1">
          <mxGeometry width="50" height="50" relative="1" as="geometry">
            <mxPoint x="350" y="460" as="sourcePoint" />
            <mxPoint x="490" y="460" as="targetPoint" />
          </mxGeometry>
        </mxCell>
        <mxCell id="3WDfcnALqWgkgmz_dM7G-41" value="FK" style="text;html=1;strokeColor=none;fillColor=none;align=center;verticalAlign=middle;whiteSpace=wrap;rounded=0;" vertex="1" parent="1">
          <mxGeometry x="350" y="430" width="30" height="30" as="geometry" />
        </mxCell>
        <mxCell id="3WDfcnALqWgkgmz_dM7G-43" value="donate_datetime" style="text;html=1;strokeColor=none;fillColor=none;align=center;verticalAlign=middle;whiteSpace=wrap;rounded=0;" vertex="1" parent="1">
          <mxGeometry x="380" y="340" width="110" height="30" as="geometry" />
        </mxCell>
        <mxCell id="3WDfcnALqWgkgmz_dM7G-44" value="donate_location" style="text;html=1;strokeColor=none;fillColor=none;align=center;verticalAlign=middle;whiteSpace=wrap;rounded=0;" vertex="1" parent="1">
          <mxGeometry x="380" y="370" width="110" height="30" as="geometry" />
        </mxCell>
        <mxCell id="3WDfcnALqWgkgmz_dM7G-45" value="" style="endArrow=none;html=1;rounded=0;exitX=0;exitY=1;exitDx=0;exitDy=0;entryX=1;entryY=1;entryDx=0;entryDy=0;" edge="1" parent="1" source="3WDfcnALqWgkgmz_dM7G-50" target="3WDfcnALqWgkgmz_dM7G-49">
          <mxGeometry width="50" height="50" relative="1" as="geometry">
            <mxPoint x="440" y="489.35" as="sourcePoint" />
            <mxPoint x="580" y="489.35" as="targetPoint" />
          </mxGeometry>
        </mxCell>
        <mxCell id="3WDfcnALqWgkgmz_dM7G-47" value="donor_id" style="text;html=1;strokeColor=none;fillColor=none;align=center;verticalAlign=middle;whiteSpace=wrap;rounded=0;" vertex="1" parent="1">
          <mxGeometry x="380" y="430" width="110" height="30" as="geometry" />
        </mxCell>
        <mxCell id="3WDfcnALqWgkgmz_dM7G-48" value="farmer_id" style="text;html=1;strokeColor=none;fillColor=none;align=center;verticalAlign=middle;whiteSpace=wrap;rounded=0;" vertex="1" parent="1">
          <mxGeometry x="380" y="490" width="110" height="30" as="geometry" />
        </mxCell>
        <mxCell id="3WDfcnALqWgkgmz_dM7G-49" value="volunteer_id" style="text;html=1;strokeColor=none;fillColor=none;align=center;verticalAlign=middle;whiteSpace=wrap;rounded=0;" vertex="1" parent="1">
          <mxGeometry x="380" y="460" width="110" height="30" as="geometry" />
        </mxCell>
        <mxCell id="3WDfcnALqWgkgmz_dM7G-50" value="FK" style="text;html=1;strokeColor=none;fillColor=none;align=center;verticalAlign=middle;whiteSpace=wrap;rounded=0;" vertex="1" parent="1">
          <mxGeometry x="350" y="460" width="30" height="30" as="geometry" />
        </mxCell>
        <mxCell id="3WDfcnALqWgkgmz_dM7G-51" value="FK" style="text;html=1;strokeColor=none;fillColor=none;align=center;verticalAlign=middle;whiteSpace=wrap;rounded=0;" vertex="1" parent="1">
          <mxGeometry x="350" y="490" width="30" height="30" as="geometry" />
        </mxCell>
        <mxCell id="3WDfcnALqWgkgmz_dM7G-53" value="" style="endArrow=none;html=1;rounded=0;exitX=0;exitY=0;exitDx=0;exitDy=0;entryX=1;entryY=1;entryDx=0;entryDy=0;" edge="1" parent="1" source="3WDfcnALqWgkgmz_dM7G-41">
          <mxGeometry width="50" height="50" relative="1" as="geometry">
            <mxPoint x="350" y="440" as="sourcePoint" />
            <mxPoint x="490" y="430" as="targetPoint" />
          </mxGeometry>
        </mxCell>
        <mxCell id="3WDfcnALqWgkgmz_dM7G-57" value="" style="endArrow=none;html=1;rounded=0;strokeWidth=1;endSize=6;jumpSize=6;exitX=0;exitY=1;exitDx=0;exitDy=0;" edge="1" parent="1" source="3WDfcnALqWgkgmz_dM7G-62">
          <mxGeometry width="50" height="50" relative="1" as="geometry">
            <mxPoint x="110" y="760" as="sourcePoint" />
            <mxPoint x="110" y="550" as="targetPoint" />
          </mxGeometry>
        </mxCell>
        <mxCell id="3WDfcnALqWgkgmz_dM7G-58" value="&lt;b&gt;&lt;font style=&quot;font-size: 16px;&quot;&gt;Farmers&lt;/font&gt;&lt;/b&gt;" style="swimlane;fontStyle=0;childLayout=stackLayout;horizontal=1;startSize=30;horizontalStack=0;resizeParent=1;resizeParentMax=0;resizeLast=0;collapsible=1;marginBottom=0;whiteSpace=wrap;html=1;" vertex="1" parent="1">
          <mxGeometry x="80" y="520" width="140" height="210" as="geometry" />
        </mxCell>
        <mxCell id="3WDfcnALqWgkgmz_dM7G-59" value="" style="endArrow=none;html=1;rounded=0;" edge="1" parent="1">
          <mxGeometry width="50" height="50" relative="1" as="geometry">
            <mxPoint x="80" y="580" as="sourcePoint" />
            <mxPoint x="220" y="580" as="targetPoint" />
          </mxGeometry>
        </mxCell>
        <mxCell id="3WDfcnALqWgkgmz_dM7G-60" value="&lt;b&gt;PK&lt;/b&gt;" style="text;html=1;strokeColor=none;fillColor=none;align=center;verticalAlign=middle;whiteSpace=wrap;rounded=0;" vertex="1" parent="1">
          <mxGeometry x="80" y="550" width="30" height="30" as="geometry" />
        </mxCell>
        <mxCell id="3WDfcnALqWgkgmz_dM7G-61" value="farmer_name" style="text;html=1;strokeColor=none;fillColor=none;align=center;verticalAlign=middle;whiteSpace=wrap;rounded=0;" vertex="1" parent="1">
          <mxGeometry x="110" y="580" width="110" height="30" as="geometry" />
        </mxCell>
        <mxCell id="3WDfcnALqWgkgmz_dM7G-62" value="farmer_profile_img" style="text;html=1;strokeColor=none;fillColor=none;align=center;verticalAlign=middle;whiteSpace=wrap;rounded=0;" vertex="1" parent="1">
          <mxGeometry x="110" y="700" width="110" height="30" as="geometry" />
        </mxCell>
        <mxCell id="3WDfcnALqWgkgmz_dM7G-63" value="farmer_address" style="text;html=1;strokeColor=none;fillColor=none;align=center;verticalAlign=middle;whiteSpace=wrap;rounded=0;" vertex="1" parent="1">
          <mxGeometry x="110" y="670" width="110" height="30" as="geometry" />
        </mxCell>
        <mxCell id="3WDfcnALqWgkgmz_dM7G-70" style="edgeStyle=orthogonalEdgeStyle;rounded=0;orthogonalLoop=1;jettySize=auto;html=1;exitX=1;exitY=0.5;exitDx=0;exitDy=0;entryX=0;entryY=0.5;entryDx=0;entryDy=0;endArrow=ERzeroToMany;endFill=0;startArrow=ERzeroToMany;startFill=0;" edge="1" parent="1" source="3WDfcnALqWgkgmz_dM7G-64" target="3WDfcnALqWgkgmz_dM7G-51">
          <mxGeometry relative="1" as="geometry" />
        </mxCell>
        <mxCell id="3WDfcnALqWgkgmz_dM7G-64" value="farmer_id" style="text;html=1;strokeColor=none;fillColor=none;align=center;verticalAlign=middle;whiteSpace=wrap;rounded=0;" vertex="1" parent="1">
          <mxGeometry x="110" y="550" width="110" height="30" as="geometry" />
        </mxCell>
        <mxCell id="3WDfcnALqWgkgmz_dM7G-65" value="farmer_contact_no" style="text;html=1;strokeColor=none;fillColor=none;align=center;verticalAlign=middle;whiteSpace=wrap;rounded=0;" vertex="1" parent="1">
          <mxGeometry x="110" y="610" width="110" height="30" as="geometry" />
        </mxCell>
        <mxCell id="3WDfcnALqWgkgmz_dM7G-66" value="farmer_email" style="text;html=1;strokeColor=none;fillColor=none;align=center;verticalAlign=middle;whiteSpace=wrap;rounded=0;" vertex="1" parent="1">
          <mxGeometry x="110" y="640" width="110" height="30" as="geometry" />
        </mxCell>
        <mxCell id="3WDfcnALqWgkgmz_dM7G-73" value="" style="endArrow=none;html=1;rounded=0;strokeWidth=1;endSize=6;jumpSize=6;exitX=0;exitY=1;exitDx=0;exitDy=0;" edge="1" parent="1" source="3WDfcnALqWgkgmz_dM7G-83">
          <mxGeometry width="50" height="50" relative="1" as="geometry">
            <mxPoint x="590" y="685" as="sourcePoint" />
            <mxPoint x="590" y="505" as="targetPoint" />
          </mxGeometry>
        </mxCell>
        <mxCell id="3WDfcnALqWgkgmz_dM7G-74" value="&lt;b&gt;&lt;font style=&quot;font-size: 16px;&quot;&gt;Volunteers&lt;/font&gt;&lt;/b&gt;" style="swimlane;fontStyle=0;childLayout=stackLayout;horizontal=1;startSize=30;horizontalStack=0;resizeParent=1;resizeParentMax=0;resizeLast=0;collapsible=1;marginBottom=0;whiteSpace=wrap;html=1;" vertex="1" parent="1">
          <mxGeometry x="560" y="475" width="160" height="240" as="geometry" />
        </mxCell>
        <mxCell id="3WDfcnALqWgkgmz_dM7G-75" value="" style="endArrow=none;html=1;rounded=0;entryX=1;entryY=1;entryDx=0;entryDy=0;" edge="1" parent="1" target="3WDfcnALqWgkgmz_dM7G-80">
          <mxGeometry width="50" height="50" relative="1" as="geometry">
            <mxPoint x="560" y="535" as="sourcePoint" />
            <mxPoint x="700" y="535" as="targetPoint" />
          </mxGeometry>
        </mxCell>
        <mxCell id="3WDfcnALqWgkgmz_dM7G-101" style="edgeStyle=orthogonalEdgeStyle;rounded=0;orthogonalLoop=1;jettySize=auto;html=1;exitX=0;exitY=0.5;exitDx=0;exitDy=0;entryX=1;entryY=0.5;entryDx=0;entryDy=0;endArrow=ERzeroToMany;endFill=0;startArrow=ERone;startFill=0;" edge="1" parent="1" source="3WDfcnALqWgkgmz_dM7G-76" target="3WDfcnALqWgkgmz_dM7G-49">
          <mxGeometry relative="1" as="geometry" />
        </mxCell>
        <mxCell id="3WDfcnALqWgkgmz_dM7G-76" value="&lt;b&gt;PK&lt;/b&gt;" style="text;html=1;strokeColor=none;fillColor=none;align=center;verticalAlign=middle;whiteSpace=wrap;rounded=0;" vertex="1" parent="1">
          <mxGeometry x="560" y="505" width="30" height="25" as="geometry" />
        </mxCell>
        <mxCell id="3WDfcnALqWgkgmz_dM7G-77" value="volunteer_name" style="text;html=1;strokeColor=none;fillColor=none;align=center;verticalAlign=middle;whiteSpace=wrap;rounded=0;" vertex="1" parent="1">
          <mxGeometry x="590" y="535" width="130" height="30" as="geometry" />
        </mxCell>
        <mxCell id="3WDfcnALqWgkgmz_dM7G-78" value="volunteer_profile_img" style="text;html=1;strokeColor=none;fillColor=none;align=center;verticalAlign=middle;whiteSpace=wrap;rounded=0;" vertex="1" parent="1">
          <mxGeometry x="590" y="655" width="130" height="30" as="geometry" />
        </mxCell>
        <mxCell id="3WDfcnALqWgkgmz_dM7G-79" value="vlounteer_location" style="text;html=1;strokeColor=none;fillColor=none;align=center;verticalAlign=middle;whiteSpace=wrap;rounded=0;" vertex="1" parent="1">
          <mxGeometry x="590" y="625" width="130" height="30" as="geometry" />
        </mxCell>
        <mxCell id="3WDfcnALqWgkgmz_dM7G-106" style="edgeStyle=orthogonalEdgeStyle;rounded=0;orthogonalLoop=1;jettySize=auto;html=1;exitX=1;exitY=0.5;exitDx=0;exitDy=0;entryX=0;entryY=0.5;entryDx=0;entryDy=0;startArrow=ERoneToMany;startFill=0;endArrow=ERmandOne;endFill=0;" edge="1" parent="1" source="3WDfcnALqWgkgmz_dM7G-80" target="3WDfcnALqWgkgmz_dM7G-104">
          <mxGeometry relative="1" as="geometry">
            <Array as="points">
              <mxPoint x="760" y="520" />
              <mxPoint x="760" y="440" />
              <mxPoint x="600" y="440" />
              <mxPoint x="600" y="385" />
            </Array>
          </mxGeometry>
        </mxCell>
        <mxCell id="3WDfcnALqWgkgmz_dM7G-80" value="volunteer_id" style="text;html=1;strokeColor=none;fillColor=none;align=center;verticalAlign=middle;whiteSpace=wrap;rounded=0;" vertex="1" parent="1">
          <mxGeometry x="590" y="505" width="130" height="30" as="geometry" />
        </mxCell>
        <mxCell id="3WDfcnALqWgkgmz_dM7G-81" value="phone_no" style="text;html=1;strokeColor=none;fillColor=none;align=center;verticalAlign=middle;whiteSpace=wrap;rounded=0;" vertex="1" parent="1">
          <mxGeometry x="590" y="565" width="130" height="30" as="geometry" />
        </mxCell>
        <mxCell id="3WDfcnALqWgkgmz_dM7G-82" value="volunteer_email" style="text;html=1;strokeColor=none;fillColor=none;align=center;verticalAlign=middle;whiteSpace=wrap;rounded=0;" vertex="1" parent="1">
          <mxGeometry x="590" y="595" width="130" height="30" as="geometry" />
        </mxCell>
        <mxCell id="3WDfcnALqWgkgmz_dM7G-83" value="ngo_id" style="text;html=1;strokeColor=none;fillColor=none;align=center;verticalAlign=middle;whiteSpace=wrap;rounded=0;" vertex="1" parent="1">
          <mxGeometry x="590" y="685" width="130" height="30" as="geometry" />
        </mxCell>
        <mxCell id="3WDfcnALqWgkgmz_dM7G-84" value="" style="endArrow=none;html=1;rounded=0;entryX=1;entryY=0;entryDx=0;entryDy=0;" edge="1" parent="1" target="3WDfcnALqWgkgmz_dM7G-83">
          <mxGeometry width="50" height="50" relative="1" as="geometry">
            <mxPoint x="560" y="685" as="sourcePoint" />
            <mxPoint x="640" y="655" as="targetPoint" />
          </mxGeometry>
        </mxCell>
        <mxCell id="3WDfcnALqWgkgmz_dM7G-85" value="FK" style="text;html=1;strokeColor=none;fillColor=none;align=center;verticalAlign=middle;whiteSpace=wrap;rounded=0;" vertex="1" parent="1">
          <mxGeometry x="560" y="685" width="30" height="30" as="geometry" />
        </mxCell>
        <mxCell id="3WDfcnALqWgkgmz_dM7G-86" value="" style="endArrow=none;html=1;rounded=0;strokeWidth=1;endSize=6;jumpSize=6;exitX=1;exitY=1;exitDx=0;exitDy=0;" edge="1" parent="1" source="3WDfcnALqWgkgmz_dM7G-104">
          <mxGeometry width="50" height="50" relative="1" as="geometry">
            <mxPoint x="660" y="370" as="sourcePoint" />
            <mxPoint x="660" y="190" as="targetPoint" />
          </mxGeometry>
        </mxCell>
        <mxCell id="3WDfcnALqWgkgmz_dM7G-87" value="&lt;b&gt;&lt;font style=&quot;font-size: 16px;&quot;&gt;Notifications&lt;/font&gt;&lt;/b&gt;" style="swimlane;fontStyle=0;childLayout=stackLayout;horizontal=1;startSize=30;horizontalStack=0;resizeParent=1;resizeParentMax=0;resizeLast=0;collapsible=1;marginBottom=0;whiteSpace=wrap;html=1;" vertex="1" parent="1">
          <mxGeometry x="630" y="160" width="140" height="240" as="geometry" />
        </mxCell>
        <mxCell id="3WDfcnALqWgkgmz_dM7G-88" value="" style="endArrow=none;html=1;rounded=0;" edge="1" parent="1">
          <mxGeometry width="50" height="50" relative="1" as="geometry">
            <mxPoint x="630" y="220" as="sourcePoint" />
            <mxPoint x="770" y="220" as="targetPoint" />
          </mxGeometry>
        </mxCell>
        <mxCell id="3WDfcnALqWgkgmz_dM7G-89" value="&lt;b&gt;PK&lt;/b&gt;" style="text;html=1;strokeColor=none;fillColor=none;align=center;verticalAlign=middle;whiteSpace=wrap;rounded=0;" vertex="1" parent="1">
          <mxGeometry x="630" y="190" width="30" height="30" as="geometry" />
        </mxCell>
        <mxCell id="3WDfcnALqWgkgmz_dM7G-90" value="title" style="text;html=1;strokeColor=none;fillColor=none;align=center;verticalAlign=middle;whiteSpace=wrap;rounded=0;" vertex="1" parent="1">
          <mxGeometry x="670" y="220" width="100" height="30" as="geometry" />
        </mxCell>
        <mxCell id="3WDfcnALqWgkgmz_dM7G-93" value="notify_id" style="text;html=1;strokeColor=none;fillColor=none;align=center;verticalAlign=middle;whiteSpace=wrap;rounded=0;" vertex="1" parent="1">
          <mxGeometry x="660" y="190" width="110" height="30" as="geometry" />
        </mxCell>
        <mxCell id="3WDfcnALqWgkgmz_dM7G-94" value="descriptions" style="text;html=1;strokeColor=none;fillColor=none;align=center;verticalAlign=middle;whiteSpace=wrap;rounded=0;" vertex="1" parent="1">
          <mxGeometry x="660" y="250" width="110" height="30" as="geometry" />
        </mxCell>
        <mxCell id="3WDfcnALqWgkgmz_dM7G-95" value="farmer_email" style="text;html=1;strokeColor=none;fillColor=none;align=center;verticalAlign=middle;whiteSpace=wrap;rounded=0;" vertex="1" parent="1">
          <mxGeometry x="660" y="280" width="110" height="30" as="geometry" />
        </mxCell>
        <mxCell id="3WDfcnALqWgkgmz_dM7G-96" value="notify_date" style="text;html=1;strokeColor=none;fillColor=none;align=center;verticalAlign=middle;whiteSpace=wrap;rounded=0;" vertex="1" parent="1">
          <mxGeometry x="660" y="310" width="110" height="30" as="geometry" />
        </mxCell>
        <mxCell id="3WDfcnALqWgkgmz_dM7G-97" value="food_id" style="text;html=1;strokeColor=none;fillColor=none;align=center;verticalAlign=middle;whiteSpace=wrap;rounded=0;" vertex="1" parent="1">
          <mxGeometry x="660" y="340" width="110" height="30" as="geometry" />
        </mxCell>
        <mxCell id="3WDfcnALqWgkgmz_dM7G-98" value="" style="endArrow=none;html=1;rounded=0;entryX=1;entryY=0;entryDx=0;entryDy=0;" edge="1" parent="1" target="3WDfcnALqWgkgmz_dM7G-97">
          <mxGeometry width="50" height="50" relative="1" as="geometry">
            <mxPoint x="630" y="340" as="sourcePoint" />
            <mxPoint x="710" y="310" as="targetPoint" />
          </mxGeometry>
        </mxCell>
        <mxCell id="3WDfcnALqWgkgmz_dM7G-99" value="FK" style="text;html=1;strokeColor=none;fillColor=none;align=center;verticalAlign=middle;whiteSpace=wrap;rounded=0;" vertex="1" parent="1">
          <mxGeometry x="630" y="340" width="30" height="30" as="geometry" />
        </mxCell>
        <mxCell id="3WDfcnALqWgkgmz_dM7G-102" value="volunteer_id" style="text;html=1;strokeColor=none;fillColor=none;align=center;verticalAlign=middle;whiteSpace=wrap;rounded=0;" vertex="1" parent="1">
          <mxGeometry x="660" y="370" width="110" height="30" as="geometry" />
        </mxCell>
        <mxCell id="3WDfcnALqWgkgmz_dM7G-103" value="" style="endArrow=none;html=1;rounded=0;entryX=1;entryY=0;entryDx=0;entryDy=0;exitX=0;exitY=1;exitDx=0;exitDy=0;" edge="1" parent="1" target="3WDfcnALqWgkgmz_dM7G-102" source="3WDfcnALqWgkgmz_dM7G-99">
          <mxGeometry width="50" height="50" relative="1" as="geometry">
            <mxPoint x="640" y="350" as="sourcePoint" />
            <mxPoint x="720" y="320" as="targetPoint" />
          </mxGeometry>
        </mxCell>
        <mxCell id="3WDfcnALqWgkgmz_dM7G-104" value="FK" style="text;html=1;strokeColor=none;fillColor=none;align=center;verticalAlign=middle;whiteSpace=wrap;rounded=0;" vertex="1" parent="1">
          <mxGeometry x="630" y="370" width="30" height="30" as="geometry" />
        </mxCell>
        <mxCell id="3WDfcnALqWgkgmz_dM7G-107" value="" style="endArrow=none;html=1;rounded=0;strokeWidth=1;endSize=6;jumpSize=6;exitX=0;exitY=1;exitDx=0;exitDy=0;" edge="1" parent="1" source="3WDfcnALqWgkgmz_dM7G-119">
          <mxGeometry width="50" height="50" relative="1" as="geometry">
            <mxPoint x="370" y="800" as="sourcePoint" />
            <mxPoint x="370" y="590" as="targetPoint" />
          </mxGeometry>
        </mxCell>
        <mxCell id="3WDfcnALqWgkgmz_dM7G-108" value="&lt;b&gt;&lt;font style=&quot;font-size: 16px;&quot;&gt;NGOs&lt;/font&gt;&lt;/b&gt;" style="swimlane;fontStyle=0;childLayout=stackLayout;horizontal=1;startSize=30;horizontalStack=0;resizeParent=1;resizeParentMax=0;resizeLast=0;collapsible=1;marginBottom=0;whiteSpace=wrap;html=1;" vertex="1" parent="1">
          <mxGeometry x="340" y="560" width="140" height="270" as="geometry" />
        </mxCell>
        <mxCell id="3WDfcnALqWgkgmz_dM7G-109" value="" style="endArrow=none;html=1;rounded=0;" edge="1" parent="1">
          <mxGeometry width="50" height="50" relative="1" as="geometry">
            <mxPoint x="340" y="620" as="sourcePoint" />
            <mxPoint x="480" y="620" as="targetPoint" />
          </mxGeometry>
        </mxCell>
        <mxCell id="3WDfcnALqWgkgmz_dM7G-110" value="&lt;b&gt;PK&lt;/b&gt;" style="text;html=1;strokeColor=none;fillColor=none;align=center;verticalAlign=middle;whiteSpace=wrap;rounded=0;" vertex="1" parent="1">
          <mxGeometry x="340" y="590" width="30" height="30" as="geometry" />
        </mxCell>
        <mxCell id="3WDfcnALqWgkgmz_dM7G-111" value="ngo_name" style="text;html=1;strokeColor=none;fillColor=none;align=center;verticalAlign=middle;whiteSpace=wrap;rounded=0;" vertex="1" parent="1">
          <mxGeometry x="370" y="620" width="110" height="30" as="geometry" />
        </mxCell>
        <mxCell id="3WDfcnALqWgkgmz_dM7G-112" value="established_date" style="text;html=1;strokeColor=none;fillColor=none;align=center;verticalAlign=middle;whiteSpace=wrap;rounded=0;" vertex="1" parent="1">
          <mxGeometry x="380" y="750" width="100" height="20" as="geometry" />
        </mxCell>
        <mxCell id="3WDfcnALqWgkgmz_dM7G-113" value="ngo_address" style="text;html=1;strokeColor=none;fillColor=none;align=center;verticalAlign=middle;whiteSpace=wrap;rounded=0;" vertex="1" parent="1">
          <mxGeometry x="370" y="710" width="110" height="30" as="geometry" />
        </mxCell>
        <mxCell id="3WDfcnALqWgkgmz_dM7G-117" style="edgeStyle=orthogonalEdgeStyle;rounded=0;orthogonalLoop=1;jettySize=auto;html=1;exitX=1;exitY=0.5;exitDx=0;exitDy=0;entryX=0;entryY=0.5;entryDx=0;entryDy=0;endArrow=ERoneToMany;endFill=0;startArrow=ERmandOne;startFill=0;" edge="1" parent="1" source="3WDfcnALqWgkgmz_dM7G-114" target="3WDfcnALqWgkgmz_dM7G-85">
          <mxGeometry relative="1" as="geometry" />
        </mxCell>
        <mxCell id="3WDfcnALqWgkgmz_dM7G-114" value="ngo_id" style="text;html=1;strokeColor=none;fillColor=none;align=center;verticalAlign=middle;whiteSpace=wrap;rounded=0;" vertex="1" parent="1">
          <mxGeometry x="370" y="590" width="110" height="30" as="geometry" />
        </mxCell>
        <mxCell id="3WDfcnALqWgkgmz_dM7G-115" value="telephone_no" style="text;html=1;strokeColor=none;fillColor=none;align=center;verticalAlign=middle;whiteSpace=wrap;rounded=0;" vertex="1" parent="1">
          <mxGeometry x="370" y="650" width="110" height="30" as="geometry" />
        </mxCell>
        <mxCell id="3WDfcnALqWgkgmz_dM7G-116" value="ngo_email" style="text;html=1;strokeColor=none;fillColor=none;align=center;verticalAlign=middle;whiteSpace=wrap;rounded=0;" vertex="1" parent="1">
          <mxGeometry x="370" y="680" width="110" height="30" as="geometry" />
        </mxCell>
        <mxCell id="3WDfcnALqWgkgmz_dM7G-118" value="ngo_descriptions" style="text;html=1;strokeColor=none;fillColor=none;align=center;verticalAlign=middle;whiteSpace=wrap;rounded=0;" vertex="1" parent="1">
          <mxGeometry x="370" y="770" width="110" height="30" as="geometry" />
        </mxCell>
        <mxCell id="3WDfcnALqWgkgmz_dM7G-119" value="ngo_logo_img" style="text;html=1;strokeColor=none;fillColor=none;align=center;verticalAlign=middle;whiteSpace=wrap;rounded=0;" vertex="1" parent="1">
          <mxGeometry x="370" y="800" width="105" height="30" as="geometry" />
        </mxCell>
      </root>
    </mxGraphModel>
  </diagram>
</mxfile>
